<?xml version="1.0" standalone="no"?>
<!DOCTYPE svg PUBLIC "-//W3C//DTD SVG 20010904//EN"
 "http://www.w3.org/TR/2001/REC-SVG-20010904/DTD/svg10.dtd">
<svg version="1.0" xmlns="http://www.w3.org/2000/svg"
 width="512.000000pt" height="512.000000pt" viewBox="0 0 512.000000 512.000000"
 preserveAspectRatio="xMidYMid meet">

<g transform="translate(0.000000,512.000000) scale(0.100000,-0.100000)"
fill="#000000" stroke="none">
<path d="M978 5099 c-23 -12 -46 -35 -58 -59 -19 -37 -20 -58 -20 -430 l0
-390 -89 0 c-48 0 -112 -5 -142 -10 -180 -34 -325 -179 -359 -359 -5 -30 -10
-167 -10 -305 l0 -251 -65 -34 c-109 -56 -197 -174 -224 -299 -15 -70 -16
-1915 -1 -1993 34 -180 179 -325 359 -359 30 -5 161 -10 292 -10 l239 0 0
-240 c0 -222 2 -244 20 -280 13 -26 34 -47 60 -60 39 -20 56 -20 1580 -20
1524 0 1541 0 1580 20 26 13 47 34 60 60 18 36 20 58 20 280 l0 240 239 0
c131 0 262 5 292 10 180 34 325 179 359 359 15 78 14 1923 -1 1993 -27 125
-115 243 -224 299 l-65 34 0 251 c0 138 -5 275 -10 305 -34 180 -179 325 -359
359 -30 5 -113 10 -185 10 l-131 0 -430 431 c-237 237 -447 439 -467 450 -36
18 -69 19 -1130 19 -1068 -1 -1094 -1 -1130 -21z m2042 -669 c0 -372 1 -393
20 -430 13 -26 34 -47 60 -60 37 -19 58 -20 430 -20 l390 0 0 -300 0 -300
-1360 0 -1360 0 0 750 0 750 910 0 910 0 0 -390z m495 -20 l190 -190 -193 0
-192 0 0 190 c0 105 1 190 3 190 1 0 88 -85 192 -190z m-2615 -790 l0 -300
-150 0 -150 0 0 240 c0 222 2 244 20 280 31 60 75 79 188 80 l92 0 0 -300z
m3540 280 c26 -13 47 -34 60 -60 18 -36 20 -58 20 -280 l0 -240 -150 0 -150 0
0 300 0 300 90 0 c71 0 99 -4 130 -20z m300 -900 c26 -13 47 -34 60 -60 20
-38 20 -57 20 -980 0 -923 0 -942 -20 -980 -13 -26 -34 -47 -60 -60 -36 -18
-58 -20 -280 -20 l-240 0 0 450 0 450 90 0 c71 0 99 4 130 20 45 23 80 80 80
130 0 50 -35 107 -80 130 -39 20 -55 20 -1880 20 -1825 0 -1841 0 -1880 -20
-45 -23 -80 -80 -80 -130 0 -50 35 -107 80 -130 31 -16 59 -20 130 -20 l90 0
0 -450 0 -450 -240 0 c-222 0 -244 2 -280 20 -26 13 -47 34 -60 60 -20 38 -20
57 -20 980 0 923 0 942 20 980 12 24 35 47 58 59 36 20 66 20 2180 21 2128 0
2143 0 2182 -20z m-820 -1950 l0 -750 -1360 0 -1360 0 0 750 0 750 1360 0
1360 0 0 -750z"/>
<path d="M678 2699 c-43 -22 -78 -81 -78 -129 0 -50 35 -107 80 -130 35 -18
59 -20 220 -20 210 0 244 10 280 80 25 50 25 90 0 140 -36 71 -69 80 -282 80
-162 -1 -187 -3 -220 -21z"/>
<path d="M1578 1479 c-43 -22 -78 -81 -78 -129 0 -50 35 -107 80 -130 38 -20
57 -20 980 -20 923 0 942 0 980 20 45 23 80 80 80 130 0 50 -35 107 -80 130
-38 20 -56 20 -982 20 -919 -1 -944 -1 -980 -21z"/>
<path d="M1578 879 c-43 -22 -78 -81 -78 -129 0 -50 35 -107 80 -130 38 -20
57 -20 980 -20 923 0 942 0 980 20 45 23 80 80 80 130 0 50 -35 107 -80 130
-38 20 -56 20 -982 20 -919 -1 -944 -1 -980 -21z"/>
</g>
</svg>
